<?xml version="1.0" encoding="UTF-8"?>
<svg xmlns="http://www.w3.org/2000/svg" version="1.1" viewBox="0 0 250 250">
  <defs>
    <style>
      .cls-1 {
        fill: #dc0000;
      }

      .cls-2 {
        fill: #fcfbfb;
      }

      .cls-3 {
        fill: #020202;
      }
    </style>
  </defs>
  <!-- Generator: Adobe Illustrator 28.7.1, SVG Export Plug-In . SVG Version: 1.2.0 Build 142)  -->
  <g>
    <g id="Layer_1">
      <rect class="cls-1" x="1" y="3.4" width="247.9" height="243.3"/>
      <path class="cls-2" d="M31.6,125c0-50.1,41.9-91.2,93.2-91.3,51.5-.1,93.7,41.1,93.6,91.4-.1,50.2-42.2,91.1-93.5,91-51.3,0-93.3-41.1-93.3-91.2h0ZM177.9,159.3c-10.9-10.5-21.4-21.1-32.3-31.2-2.9-2.7-2.5-4,.2-6.3,4.1-3.6,8-7.3,11.6-11.3,2.3-2.5,3.6-2,5.8.1,9.6,9.6,19.5,18.9,29.1,28.6,2.7,2.8,4.1,2.5,6.5-.1,3.5-3.9,7.3-7.5,11.2-11,2.5-2.2,2.8-3.5.2-6-15.9-15.2-31.6-30.6-47.1-46-2.3-2.3-3.5-2.1-5.6.1-9.8,9.9-19.9,19.5-29.8,29.3-1.9,1.9-3.1,2.1-5,0-3.9-4.2-8-8.2-12.3-12-2.4-2.1-2.4-3.4,0-5.6,10.1-9.6,19.9-19.5,30-29.1,2-1.9,2.1-3,0-4.9-4.2-3.9-8.4-7.8-12.3-12-2.2-2.4-3.5-2.3-5.8,0-15.6,15.5-31.3,30.8-47.1,46.1-2.2,2.1-2.5,3.2-.1,5.5,10,9.5,19.7,19.3,29.7,28.7,2.6,2.5,2.4,3.8-.1,6-4.2,3.7-8.2,7.6-11.9,11.7-2.2,2.3-3.3,1.9-5.4-.1-9.6-9.6-19.5-18.9-29.1-28.6-2.8-2.9-4.4-2.6-6.9.1-3.5,3.9-7.3,7.5-11.2,11-2.2,2-2.7,3.2-.2,5.6,16,15.3,31.8,30.8,47.5,46.4,2.2,2.2,3.3,1.9,5.3,0,9.9-9.8,20-19.5,29.8-29.3,2.1-2.1,3.3-2.3,5.4,0,3.8,4.1,7.8,8,11.9,11.7,2.5,2.2,2.6,3.6,0,6-10,9.5-19.7,19.2-29.7,28.7-2.2,2.1-2.3,3.2,0,5.3,4.5,4,8.8,8.4,13,12.7,1.5,1.5,2.4,1.5,3.9,0,16.8-16.5,33.8-33,51-49.7h0Z"/>
      <path class="cls-3" d="M177.9,159.3c-17.2,16.8-34.1,33.2-51,49.7-1.5,1.5-2.4,1.5-3.9,0-4.2-4.3-8.5-8.7-13-12.7-2.3-2.1-2.1-3.2,0-5.3,10-9.5,19.7-19.3,29.7-28.7,2.5-2.4,2.5-3.8,0-6-4.2-3.7-8.2-7.6-11.9-11.7-2.1-2.3-3.3-2.1-5.4,0-9.8,9.9-19.9,19.5-29.8,29.3-2,2-3.1,2.3-5.3,0-15.7-15.6-31.5-31.1-47.5-46.4-2.5-2.4-2-3.6.2-5.6,3.9-3.5,7.7-7.1,11.2-11,2.5-2.7,4-3,6.9-.1,9.5,9.7,19.4,19,29.1,28.6,2.1,2.1,3.2,2.5,5.4.1,3.8-4.1,7.8-8,11.9-11.7,2.5-2.2,2.7-3.5.1-6-10-9.5-19.7-19.3-29.7-28.7-2.4-2.3-2.1-3.4.1-5.5,15.8-15.3,31.5-30.6,47.1-46.1,2.3-2.3,3.6-2.4,5.8,0,3.9,4.2,8,8.2,12.3,12,2.1,1.9,2,3,0,4.9-10.1,9.6-19.9,19.5-30,29.1-2.4,2.2-2.3,3.5,0,5.6,4.3,3.8,8.4,7.9,12.3,12,2,2.1,3.1,1.9,5,0,9.9-9.8,20-19.4,29.8-29.3,2.2-2.2,3.3-2.4,5.6-.1,15.6,15.5,31.3,30.8,47.1,46,2.6,2.5,2.3,3.8-.2,6-3.9,3.5-7.7,7.1-11.2,11-2.4,2.6-3.8,2.9-6.5.1-9.5-9.7-19.4-19-29.1-28.6-2.2-2.2-3.5-2.7-5.8-.1-3.6,4-7.5,7.8-11.6,11.3-2.6,2.3-3,3.7-.2,6.3,10.9,10.2,21.5,20.7,32.3,31.2h0Z"/>
    </g>
  </g>
</svg>