<?xml version="1.0" encoding="UTF-8"?>
<svg id="uuid-94b7b3b8-b361-4316-a87a-63c9f4b799ef" data-name="Layer_1" xmlns="http://www.w3.org/2000/svg" viewBox="0 0 370.5 189.22">
  <defs>
    <style>
      .uuid-b1f6f2c1-9306-4258-bebd-76a97b31ec10 {
        fill: #f2f2f2;
      }

      .uuid-6adbe2ee-cff1-4c68-ae18-87a0ce598f57 {
        fill: #333;
      }

      .uuid-4c03ab4f-9fb7-4096-b73c-2e046f20052a {
        fill: #1a1a1a;
      }
    </style>
  </defs>
  <g>
    <rect class="uuid-4c03ab4f-9fb7-4096-b73c-2e046f20052a" y="146.05" width="370.5" height="11.88"/>
    <rect class="uuid-4c03ab4f-9fb7-4096-b73c-2e046f20052a" y="113.87" width="370.5" height="11.88"/>
    <rect class="uuid-4c03ab4f-9fb7-4096-b73c-2e046f20052a" y="81.69" width="370.5" height="11.88"/>
    <rect class="uuid-4c03ab4f-9fb7-4096-b73c-2e046f20052a" y="177.18" width="370.5" height="11.88"/>
    <rect class="uuid-4c03ab4f-9fb7-4096-b73c-2e046f20052a" y="49.51" width="370.5" height="11.88"/>
    <rect class="uuid-4c03ab4f-9fb7-4096-b73c-2e046f20052a" y="17.34" width="370.5" height="11.88"/>
  </g>
  <g>
    <rect class="uuid-4c03ab4f-9fb7-4096-b73c-2e046f20052a" x="-36.15" y="87.89" width="187.67" height="11.88" transform="translate(151.51 36.15) rotate(90)"/>
    <rect class="uuid-4c03ab4f-9fb7-4096-b73c-2e046f20052a" x="-3.97" y="87.89" width="187.67" height="11.88" transform="translate(183.69 3.97) rotate(90)"/>
    <rect class="uuid-4c03ab4f-9fb7-4096-b73c-2e046f20052a" x="28.2" y="87.89" width="187.67" height="11.88" transform="translate(215.87 -28.2) rotate(90)"/>
    <rect class="uuid-4c03ab4f-9fb7-4096-b73c-2e046f20052a" x="-67.28" y="87.89" width="187.67" height="11.88" transform="translate(120.38 67.28) rotate(90)"/>
    <rect class="uuid-4c03ab4f-9fb7-4096-b73c-2e046f20052a" x="60.38" y="87.89" width="187.67" height="11.88" transform="translate(248.05 -60.38) rotate(90)"/>
    <rect class="uuid-4c03ab4f-9fb7-4096-b73c-2e046f20052a" x="92.56" y="87.89" width="187.67" height="11.88" transform="translate(280.22 -92.56) rotate(90)"/>
  </g>
  <g>
    <rect class="uuid-4c03ab4f-9fb7-4096-b73c-2e046f20052a" x="155.4" y="87.89" width="187.67" height="11.88" transform="translate(343.06 -155.4) rotate(90)"/>
    <rect class="uuid-4c03ab4f-9fb7-4096-b73c-2e046f20052a" x="187.58" y="87.89" width="187.67" height="11.88" transform="translate(375.24 -187.58) rotate(90)"/>
    <rect class="uuid-4c03ab4f-9fb7-4096-b73c-2e046f20052a" x="219.75" y="87.89" width="187.67" height="11.88" transform="translate(407.42 -219.75) rotate(90)"/>
    <rect class="uuid-4c03ab4f-9fb7-4096-b73c-2e046f20052a" x="124.27" y="87.89" width="187.67" height="11.88" transform="translate(311.94 -124.27) rotate(90)"/>
    <rect class="uuid-4c03ab4f-9fb7-4096-b73c-2e046f20052a" x="251.93" y="87.89" width="187.67" height="11.88" transform="translate(439.6 -251.93) rotate(90)"/>
  </g>
  <g>
    <g>
      <path d="M193.2,67.24c-1.76,3.21-4.61,11.04-1.63,13.17,2.29,1.63,5.43.32,7.9-1.01,2.81-1.5,5.7-3.02,8.86-3.39,3.16-.37,6.69.67,8.42,3.34,1.92,2.96,1.1,4.94-.48,8.1-1.58,3.16-3.85,6-4.87,9.38-1.48,4.9-.13,10.15,1.21,15.08,3.18,11.66,6.35,23.39,7.63,35.41,1.29,12.02.62,24.44-3.68,35.74,7.2,4.51,16.22,4.63,24.72,4.6,13-.04,26-.07,38.99-.11,1.21,0,2.54-.05,3.47-.83.85-.72,1.14-1.88,1.32-2.98,1.39-8.52-1.53-17.05-3.25-25.51-1.74-8.52-2.28-17.28-1.59-25.95.83-10.54.37-20.56-1.6-30.94-1.24-6.52-4.25-12.61-8.08-18.02-7.31-10.32-11.91-13.84-23.74-18.31-6.71-2.53-16.66-9.11-22.93-12.61-6.26-3.5-11.67-7.85-11.27-15.01.08-1.43.39-2.85.28-4.27-.23-3-2.51-5.73-5.42-6.5-.77-.2-1.6-.27-2.33.05-1.91.84-1.85,3.58-1.18,5.55s1.61,4.25.49,6.01c-1.32,2.08-4.63,1.71-6.52.13s-2.92-3.95-4.48-5.85-4.23-3.39-6.44-2.32c-2.51,1.22-2.68,4.77-1.85,7.43,1.19,3.8,3.73,7.15,7.05,9.35,1.03.68,2.23,1.39,2.48,2.59.2.94-.26,1.88-.67,2.75-2.53,5.47-1.82,8.6-.49,14.48"/>
      <path d="M191.91,66.48c-1.63,3.02-2.93,6.54-3.12,10-.09,1.55.15,3.25,1.19,4.47,1.34,1.58,3.55,1.9,5.49,1.57,4.83-.81,8.52-4.82,13.57-5.07,4.16-.21,8.61,2.77,6.83,7.34s-5.48,8.4-6.34,13.44c-.91,5.33.69,10.62,2.07,15.72,2.94,10.82,5.84,21.73,7.08,32.9,1.34,12.04.73,24.4-3.57,35.82-.23.62.16,1.37.69,1.69,5.14,3.15,11.09,4.27,17.03,4.63,6.63.41,13.31.16,19.94.14,7.17-.02,14.33-.04,21.5-.06,1.75,0,3.5,0,5.25-.01,1.45,0,3.05.05,4.37-.65,2.62-1.39,2.81-4.83,2.97-7.45.41-6.74-1.42-13.38-2.91-19.89s-2.46-13.62-2.53-20.58.8-13.75.64-20.66-.79-13.59-2.28-20.16c-1.37-6.04-4.2-11.7-7.72-16.75-2.71-3.88-5.64-7.73-9.23-10.84-3.27-2.83-7.02-4.92-10.98-6.63-2.31-.99-4.69-1.8-6.97-2.86-2.42-1.12-4.77-2.41-7.09-3.73-4.54-2.58-8.96-5.36-13.5-7.93-4.07-2.31-8.62-5.34-9.89-10.15-.77-2.92.38-5.83-.17-8.74-.47-2.42-2.05-4.58-4.13-5.88s-5.45-1.91-7.17.43c-1.35,1.85-1,4.39-.31,6.42.4,1.18,1.12,2.71.74,3.98-.33,1.11-1.49,1.32-2.51,1.15-2.59-.44-3.85-3.16-5.2-5.11-1.56-2.26-3.7-4.4-6.59-4.65-2.47-.21-4.58,1.31-5.41,3.59-1.77,4.83,1.47,10.57,4.8,13.9.91.91,1.92,1.7,2.98,2.42.46.31.96.58,1.35.98.67.68.36,1.33.01,2.12-1.11,2.54-1.99,5.06-1.99,7.87s.67,5.36,1.26,7.96c.43,1.88,3.32,1.09,2.89-.8-.58-2.57-1.26-5.18-1.13-7.84.05-1.12.28-2.21.62-3.28.44-1.4,1.26-2.69,1.62-4.11.78-3.03-1.68-4.4-3.75-5.93s-3.73-3.58-4.87-5.87c-.94-1.88-1.78-4.4-.95-6.48,1.03-2.58,3.92-1.36,5.38.13,1.81,1.85,2.76,4.38,4.69,6.15,1.69,1.55,4.14,2.42,6.41,1.82,2.4-.63,3.66-2.9,3.44-5.29-.12-1.35-.62-2.59-1.03-3.87-.3-.94-.61-2.16-.22-3.12.9-2.2,4.35.56,5.12,1.63,1.77,2.46.75,5.19.79,7.96.13,10.27,11.11,14.77,18.6,19.26,4.48,2.68,8.96,5.42,13.69,7.62,4.17,1.93,8.54,3.29,12.53,5.61,3.46,2.01,6.41,4.63,9.01,7.66,3.5,4.07,6.64,8.6,8.97,13.44,2.73,5.67,3.83,11.8,4.53,18.01s.87,12.98.5,19.47c-.37,6.56-.67,12.99-.01,19.54s2.17,12.65,3.55,18.96c.71,3.23,1.31,6.5,1.44,9.82.06,1.55.02,3.1-.15,4.65-.12,1.09-.2,2.89-1.33,3.45s-2.91.26-4.14.26c-1.83,0-3.67.01-5.5.02-3.33,0-6.67.02-10,.03-6.83.02-13.66.04-20.5.06-5.78.02-11.68.1-17.33-1.28-2.7-.66-5.26-1.66-7.63-3.12l.69,1.69c7.8-20.73,3.63-43.26-1.82-64-.7-2.65-1.42-5.3-2.14-7.94s-1.51-5.49-1.73-8.31c-.21-2.6.05-5.18,1.12-7.58,1-2.26,2.45-4.3,3.63-6.47,1.05-1.92,2.22-4.07,2.29-6.31.07-2.07-.98-4.19-2.43-5.63-3.25-3.21-8.28-3.27-12.35-1.85-2.56.89-4.82,2.34-7.27,3.44-1.4.63-4.52,1.75-5.32-.29-.63-1.59-.02-3.73.42-5.28.51-1.81,1.2-3.58,2.09-5.24s-1.67-3.22-2.59-1.51h0Z"/>
    </g>
    <path class="uuid-4c03ab4f-9fb7-4096-b73c-2e046f20052a" d="M238.37,102.89c2.32,5.97,8.22,23.93,10.31,29.99,1.18,3.4,2.3,6.91,2.23,10.51-.05,2.57-.7,5.09-1.34,7.58-1.75,6.76-3.59,13.71-7.74,19.34-1.19,1.61-2.56,3.1-3.56,4.83-.74,1.28-1.31,2.72-2.42,3.7-2.5,2.19-6.35,1.11-9.45-.08-3.02-1.16-6.34-2.6-7.64-5.56-1.24-2.82-.24-6.07.8-8.97,3.17-8.8,6.76-17.96,5.4-27.22-1.58-10.76-9.58-19.55-12.26-30.09-.92-3.63-.87-8.17,2.2-10.31.81-.57,1.76-.9,2.71-1.18,3.74-1.1,7.83-1.39,11.51-.1,3.68,1.29,8.49,3.73,9.27,7.55"/>
    <path class="uuid-b1f6f2c1-9306-4258-bebd-76a97b31ec10" d="M193.33,64.67c1.93,0,1.93-3,0-3s-1.93,3,0,3h0Z"/>
    <path class="uuid-6adbe2ee-cff1-4c68-ae18-87a0ce598f57" d="M217.69,174.27c1.27,1.26,2.55,2.28,4.18,3.03s3.48,1.38,5.29,1.87c3.29.88,7,1.68,10.42,1.27.8-.1,1.5-.62,1.5-1.5,0-.74-.69-1.6-1.5-1.5-3.1.37-6.39-.32-9.38-1.1-1.57-.41-3.14-.88-4.62-1.54-1.61-.71-2.56-1.44-3.77-2.65-1.37-1.36-3.49.76-2.12,2.12h0Z"/>
  </g>
</svg>