<?xml version="1.0" encoding="UTF-8"?>
<svg id="Layer_1" xmlns="http://www.w3.org/2000/svg" viewBox="0 0 314.3 191.13">
  <defs>
    <style>
      .cls-1 {
        fill: #f2f2f2;
      }

      .cls-2 {
        fill: #333;
      }

      .cls-3 {
        fill: #1a1a1a;
      }
    </style>
  </defs>
  <g>
    <path class="cls-3" d="M134.56,177.87l.08-62.4c.03-20.72.05-41.43.08-62.15.02-11.73.03-23.46.05-35.19,0-2.28-2-4.46-4.35-4.35s-4.35,1.91-4.35,4.35c-.03,20.8-.06,41.6-.08,62.4l-.08,62.15c-.02,11.73-.03,23.46-.05,35.19,0,2.28,2,4.46,4.35,4.35s4.35-1.91,4.35-4.35h0Z"/>
    <path class="cls-3" d="M74.65,176.94c-.82-20.79,1.11-41.56,3.63-62.18,2.51-20.59,5.59-41.13,7.06-61.84.83-11.66,1.12-23.36.53-35.04-.12-2.27-1.92-4.46-4.35-4.35-2.26.1-4.48,1.92-4.35,4.35,1.05,20.77-.74,41.54-3.2,62.16-2.46,20.61-5.58,41.14-7.18,61.84-.9,11.66-1.3,23.36-.83,35.05.09,2.27,1.94,4.46,4.35,4.35,2.28-.1,4.45-1.92,4.35-4.35h0Z"/>
    <path class="cls-3" d="M200.6,186.77c-2.34-21.96-3.91-44.01-4.69-66.08-.78-22.16-.78-44.34,0-66.49.44-12.44,1.14-24.86,2.08-37.27.17-2.28-2.13-4.45-4.35-4.35-2.51.11-4.17,1.92-4.35,4.35-1.66,22.02-2.56,44.11-2.66,66.19-.1,22.17.58,44.34,2.05,66.46.82,12.42,1.9,24.82,3.22,37.19.24,2.26,1.83,4.47,4.35,4.35,2.15-.1,4.61-1.93,4.35-4.35h0Z"/>
    <path class="cls-3" d="M275.99,183.42c1.09-20.34,2.08-40.68,2.98-61.03.89-20.35,1.69-40.7,2.38-61.06.39-11.47.75-22.93,1.08-34.4.07-2.28-2.05-4.46-4.35-4.35s-4.28,1.91-4.35,4.35c-.58,20.36-1.26,40.72-2.04,61.07-.78,20.35-1.66,40.7-2.64,61.05-.55,11.46-1.14,22.92-1.75,34.37-.12,2.28,2.09,4.46,4.35,4.35,2.46-.11,4.22-1.91,4.35-4.35h0Z"/>
    <path class="cls-3" d="M173.36,177.6c1.38-21.27,2.69-42.54,3.99-63.82,1.3-21.18,2.6-42.37,3.96-63.55.37-5.73,1.35-11.94-.41-17.54-.81-2.57-2.1-4.97-3.94-6.95-2.08-2.25-4.7-3.38-7.69-3.74-2.4-.29-4.28,2.23-4.35,4.35-.72,19.98-1.44,39.96-2.16,59.95s-1.44,39.8-2.16,59.7c-.41,11.24-.81,22.48-1.22,33.72-.08,2.28,2.06,4.46,4.35,4.35,2.43-.11,4.27-1.91,4.35-4.35.72-19.98,1.44-39.96,2.16-59.95.72-19.9,1.44-39.8,2.16-59.7.41-11.24.81-22.48,1.22-33.72l-4.35,4.35c-1.08-.13.26.15.52.24-.79-.27-.04.09.32.27.53.27-.48-.49-.06-.05.12.12.26.23.39.35.17.17.32.34.49.51.74.77-.22-.41.1.1.48.78.96,1.52,1.33,2.36-.36-.81.06.23.15.51.21.65.35,1.31.49,1.98.02.1.11.85.04.19.03.3.06.6.08.91.04.53.05,1.07.06,1.6.01,1.23-.04,2.45-.12,3.67-.15,2.54-.33,5.08-.49,7.61-.66,10.27-1.3,20.54-1.94,30.8-1.26,20.34-2.5,40.68-3.76,61.02-.72,11.6-1.45,23.2-2.2,34.79-.15,2.28,2.11,4.46,4.35,4.35,2.49-.11,4.2-1.91,4.35-4.35h0Z"/>
    <path class="cls-3" d="M111.7,172.36c-.11-21.01-.21-42.03-.32-63.04-.11-20.93-.21-41.86-.32-62.79-.03-5.23-.05-10.47-.08-15.7-.02-4.42.76-11.17-4.11-13.54-3-1.46-6.48-.35-8.15,2.53-1.28,2.2-1.12,4.88-1.15,7.33-.07,5.32-.14,10.64-.21,15.96-.27,20.95-.54,41.89-.81,62.84-.27,21.03-.54,42.06-.82,63.09-.03,2.58-.07,5.15-.1,7.73-.03,2.28,2.02,4.46,4.35,4.35s4.32-1.91,4.35-4.35c.26-20.2.52-40.39.78-60.59s.52-40.39.78-60.59c.13-10.14.23-20.28.39-30.42,0-.27.02-.54.01-.81,0-.11-.03-.66-.02-.07s.01-.03.06-.22c.05-.2.35-.73.05-.21-.46.79-1.19,1.51-2.2,1.47-.62-.02-1.55-.31-1.98-.77l-.34-.47.15.24.14.26-.2-.48c.06.04.18.59.19.6.04.14.04.33.1.47.23.5.04-.76-.03-.23-.17,1.16.03,2.51.03,3.69.03,5.07.05,10.13.08,15.2.1,20.18.2,40.37.3,60.55.1,20.18.2,40.37.3,60.55l.04,7.48c.01,2.28,1.99,4.46,4.35,4.35s4.37-1.91,4.35-4.35h0Z"/>
    <path class="cls-3" d="M237.63,167.87c1.35-20.23,2.7-40.46,4.04-60.69,1.35-20.23,2.7-40.46,4.04-60.69.19-2.82.38-5.64.56-8.46s.41-5.67-.12-8.52c-.99-5.31-6.76-10.48-12.39-8.19-1.69.68-3.35,2.16-3.2,4.2,1.58,20.61.08,41.28-2.14,61.78-2.22,20.58-5.15,41.1-6.38,61.78-.69,11.6-.82,23.24-.01,34.84.27,3.83,4.53,5.66,7.43,3.08,4.84-4.3,6.77-11.77,4.48-17.85-.8-2.12-2.98-3.81-5.36-3.04-2.08.67-3.9,3.07-3.04,5.36.21.56.39,1.12.52,1.7.05.23.09.46.13.7-.11-.59-.05-.42-.03.08.03.53,0,1.06-.02,1.6-.03.85.12-.44,0,.08-.07.29-.11.58-.18.87-.13.52-.31,1.02-.48,1.53-.2.59.46-.86-.06.1-.11.21-.22.42-.34.62-.15.26-.31.51-.47.75-.14.21-.67.71-.07.11-.42.42-.8.86-1.25,1.26,2.48,1.03,4.96,2.05,7.43,3.08-1.45-20.62.14-41.29,2.39-61.8,2.25-20.57,5.16-41.1,6.31-61.77.65-11.6.72-23.24-.17-34.83-1.07,1.4-2.13,2.8-3.2,4.2.09-.04.58-.26.62-.22-.04-.05-.84.15-.36.05.28-.06.71.21.22-.01-.46-.21-.15.06.06.06-.14,0-.82-.47-.12-.05.14.08.29.19.43.26.51.26-.43-.5-.08-.05.07.08.63.57.24.19-.33-.33.29.48.4.7-.29-.58.13.54.18.76.03.11.16.97.1.47-.06-.46,0,.24,0,.27.02.58.04,1.15.03,1.73-.11,4.78-.6,9.58-.92,14.35-.64,9.62-1.28,19.23-1.92,28.85-1.29,19.32-2.57,38.63-3.86,57.95-.73,10.94-1.46,21.89-2.19,32.83-.15,2.28,2.11,4.45,4.35,4.35,2.49-.11,4.19-1.91,4.35-4.35h0Z"/>
    <path class="cls-3" d="M48.88,170c2.29-20.38,3.97-40.84,5.03-61.32,1.05-20.32,1.5-40.67,1.33-61.02-.04-5.35.12-10.79-.34-16.13-.2-2.27-.5-4.58-1.34-6.71-1.09-2.76-2.66-4.83-5.03-6.62-2.78-2.1-6.48.79-6.55,3.76-.49,19.51-.97,39.03-1.46,58.54-.49,19.55-.98,39.1-1.46,58.65-.28,11.06-.55,22.13-.83,33.19-.06,2.28,2.04,4.46,4.35,4.35s4.29-1.91,4.35-4.35c.49-19.63.98-39.26,1.47-58.89s.98-39.1,1.46-58.65c.27-10.95.55-21.89.82-32.84l-6.55,3.76c-.8-.6.23.3.39.46.07.07.4.51.08.08-.34-.47.07.13.14.25.21.34.38.69.57,1.04-.44-.82.08.23.19.56.27.85.42,1.72.6,2.59.1.5-.02-.21-.03-.26.03.24.06.48.08.72.05.48.08.96.11,1.45.28,4.75.22,9.54.26,14.3.09,9.92.03,19.85-.17,29.77-.41,19.93-1.4,39.85-2.97,59.72-.89,11.21-1.96,22.41-3.22,33.59-.26,2.27,2.18,4.45,4.35,4.35,2.58-.12,4.08-1.92,4.35-4.35h0Z"/>
    <path class="cls-3" d="M29.61,162.85c2.21.3,4.42.61,6.64.91.61.08,1.13.1,1.68-.22.45-.26.88-.78,1-1.3.13-.56.1-1.18-.22-1.68-.28-.44-.76-.93-1.3-1-2.21-.3-4.42-.61-6.64-.91-.61-.08-1.13-.1-1.68.22-.45.26-.88.78-1,1.3-.13.56-.1,1.18.22,1.68.28.44.76.93,1.3,1h0Z"/>
    <path class="cls-3" d="M30.77,150.33l7.71-1.12c.5-.07,1.06-.59,1.3-1,.27-.47.39-1.15.22-1.68s-.5-1.04-1-1.3c-.55-.29-1.06-.31-1.68-.22l-7.71,1.12c-.5.07-1.06.59-1.3,1-.27.47-.39,1.15-.22,1.68s.5,1.04,1,1.3c.55.29,1.06.31,1.68.22h0Z"/>
    <path class="cls-3" d="M31.33,137.66c4.03-.95,8.06-1.9,12.1-2.85,1.11-.26,1.87-1.59,1.52-2.68-.37-1.16-1.49-1.8-2.68-1.52l-12.1,2.85c-1.11.26-1.87,1.59-1.52,2.68.37,1.16,1.49,1.8,2.68,1.52h0Z"/>
    <path class="cls-3" d="M31.27,126c3.4-.33,6.74-1.02,9.97-2.15,1.07-.38,1.9-1.51,1.52-2.68-.34-1.06-1.53-1.92-2.68-1.52-1.49.52-3.01.96-4.55,1.31-.76.17-1.52.32-2.28.44-.21.03-.41.07-.62.1-.12.02-.66.12-.13.02-.41.07-.83.1-1.24.14-1.13.11-2.23.92-2.18,2.18.05,1.08.96,2.3,2.18,2.18h0Z"/>
    <path class="cls-3" d="M29.65,113.84c4.41-.69,8.83-1.38,13.24-2.07,1.13-.18,1.85-1.65,1.52-2.68-.4-1.23-1.47-1.71-2.68-1.52l-13.24,2.07c-1.13.18-1.85,1.65-1.52,2.68.4,1.23,1.47,1.71,2.68,1.52h0Z"/>
    <path class="cls-3" d="M30.72,102.65c4.07-.85,8.01-2.26,11.72-4.14,1.02-.51,1.39-2.03.78-2.98-.67-1.04-1.89-1.33-2.98-.78-.86.43-1.72.84-2.6,1.22.39-.17-.36.15-.43.17-.19.08-.38.15-.57.23-.48.18-.96.36-1.45.53-1.84.64-3.73,1.15-5.64,1.55-1.12.23-1.87,1.61-1.52,2.68.38,1.18,1.48,1.77,2.68,1.52h0Z"/>
    <path class="cls-3" d="M30.72,89.59c3.5-.24,6.99-.49,10.49-.73,1.13-.08,2.23-.94,2.18-2.18-.05-1.11-.96-2.26-2.18-2.18-3.5.24-6.99.49-10.49.73-1.13.08-2.23.94-2.18,2.18.05,1.11.96,2.26,2.18,2.18h0Z"/>
    <path class="cls-3" d="M30.19,79.62c3.49-.54,6.98-1.08,10.47-1.63,1.13-.18,1.85-1.65,1.52-2.68-.4-1.23-1.47-1.71-2.68-1.52-3.49.54-6.98,1.08-10.47,1.63-1.13.18-1.85,1.65-1.52,2.68.4,1.23,1.47,1.71,2.68,1.52h0Z"/>
    <path class="cls-3" d="M30.23,67.15c4.9-.99,9.84-1.78,14.81-2.35,1.17-.13,2.18-.91,2.18-2.18,0-1.07-1-2.31-2.18-2.18-5.36.61-10.69,1.43-15.97,2.5-1.15.23-1.82,1.6-1.52,2.68.33,1.2,1.52,1.75,2.68,1.52h0Z"/>
    <path class="cls-3" d="M30.18,58.29c4.06.23,8.12-.03,12.13-.69,1.13-.18,1.86-1.64,1.52-2.68-.4-1.22-1.47-1.72-2.68-1.52-1.63.27-3.34.46-5.29.55s-3.79.09-5.68-.02c-1.14-.06-2.23,1.05-2.18,2.18.06,1.23.96,2.11,2.18,2.18h0Z"/>
    <path class="cls-3" d="M28.53,46.19h10.47c1.14,0,2.23-1,2.18-2.18s-.96-2.18-2.18-2.18h-10.47c-1.14,0-2.23,1-2.18,2.18s.96,2.18,2.18,2.18h0Z"/>
    <path class="cls-3" d="M29.08,40.13h10.47c1.14,0,2.23-1,2.18-2.18s-.96-2.18-2.18-2.18h-10.47c-1.14,0-2.23,1-2.18,2.18s.96,2.18,2.18,2.18h0Z"/>
    <path class="cls-3" d="M30.15,29.62c3.84.6,7.71.82,11.6.58,1.13-.07,2.23-.95,2.18-2.18-.05-1.12-.96-2.25-2.18-2.18-1.8.11-3.61.14-5.42.06-.88-.04-1.77-.1-2.65-.19-.42-.04-.85-.09-1.27-.14-.09-.01-.65-.09-.26-.03-.28-.04-.56-.08-.84-.13-1.12-.17-2.4.28-2.68,1.52-.24,1.04.32,2.49,1.52,2.68h0Z"/>
    <path class="cls-3" d="M93.53,164.62h4.96c.56,0,1.14-.24,1.54-.64s.66-1,.64-1.54c-.05-1.18-.96-2.18-2.18-2.18h-4.96c-.56,0-1.14.24-1.54.64s-.66,1-.64,1.54c.05,1.18.96,2.18,2.18,2.18h0Z"/>
    <path class="cls-3" d="M96.72,154.62c.89-1.05,1.88-2.01,2.97-2.85l-.44.34c.46-.36.94-.69,1.44-1.01s.85-.75,1-1.3.08-1.22-.22-1.68-.75-.87-1.3-1-1.18-.1-1.68.22c-1.81,1.15-3.47,2.56-4.85,4.2-.38.45-.64.93-.64,1.54,0,.53.24,1.17.64,1.54s.96.66,1.54.64c.55-.02,1.17-.2,1.54-.64h0Z"/>
    <path class="cls-3" d="M93.55,144.15l5.58-2c.54-.19,1-.49,1.3-1,.27-.47.39-1.15.22-1.68s-.5-1.04-1-1.3-1.13-.42-1.68-.22l-5.58,2c-.54.19-1,.49-1.3,1-.27.47-.39,1.15-.22,1.68s.5,1.04,1,1.3,1.13.42,1.68.22h0Z"/>
    <path class="cls-3" d="M94.08,128.76c1.07.06,2.19-.08,3.22-.39s2.03-.78,2.89-1.43c.47-.35.84-.71,1-1.3.14-.52.08-1.22-.22-1.68s-.75-.87-1.3-1-1.22-.12-1.68.22c-.49.37-1.02.68-1.58.92l.52-.22c-.64.27-1.32.45-2.01.55l.58-.08c-.47.06-.94.08-1.42.05-.54-.03-1.17.26-1.54.64s-.66,1-.64,1.54c.06,1.23.96,2.11,2.18,2.18h0Z"/>
    <path class="cls-3" d="M92.96,116.48c2.67-.9,5.28-1.97,7.82-3.19,1.03-.5,1.38-2.05.78-2.98-.68-1.06-1.88-1.31-2.98-.78-.96.46-1.92.9-2.9,1.31l.52-.22c-1.45.61-2.91,1.16-4.4,1.66-1.08.36-1.9,1.52-1.52,2.68.35,1.07,1.52,1.91,2.68,1.52h0Z"/>
    <path class="cls-3" d="M90.23,103.36l7.18-2.71c.54-.21,1-.48,1.3-1,.27-.47.39-1.15.22-1.68-.34-1.04-1.54-1.95-2.68-1.52-2.39.9-4.78,1.81-7.18,2.71-.54.21-1,.48-1.3,1-.27.47-.39,1.15-.22,1.68.34,1.04,1.54,1.95,2.68,1.52h0Z"/>
    <path class="cls-3" d="M87.47,91.18c3.63-.93,7.15-2.22,10.55-3.78,1.04-.48,1.38-2.06.78-2.98-.69-1.07-1.87-1.29-2.98-.78-.4.18-.79.36-1.19.53-.11.05-.23.1-.34.15.23-.1.23-.1,0,0-.17.07-.35.14-.52.21-.81.33-1.63.64-2.45.93-1.65.58-3.32,1.09-5.01,1.52-1.1.28-1.88,1.57-1.52,2.68s1.5,1.82,2.68,1.52h0Z"/>
    <path class="cls-3" d="M92.3,77.63c3.03-1.67,5.87-3.67,8.49-5.93.87-.74.82-2.32,0-3.08-.92-.85-2.15-.79-3.08,0-.3.25-.6.51-.9.75-.17.14-.34.28-.51.41-.08.06-.15.12-.23.18-.05.04-.32.25-.07.05s-.02.02-.07.05c-.08.06-.16.12-.23.18-.16.12-.31.23-.47.35-.34.25-.67.49-1.01.72-1.33.92-2.7,1.76-4.11,2.54-1,.55-1.41,2.01-.78,2.98s1.91,1.37,2.98.78h0Z"/>
    <path class="cls-3" d="M91.36,65.8l6.63-3.27c1.02-.5,1.39-2.04.78-2.98-.68-1.05-1.88-1.32-2.98-.78l-6.63,3.27c-1.02.5-1.39,2.04-.78,2.98.68,1.05,1.88,1.32,2.98.78h0Z"/>
    <path class="cls-3" d="M90.22,57.17c.5-.06,1.01-.12,1.5-.26s.95-.34,1.39-.56c.73-.35,1.4-.85,1.98-1.4,1.17-1.11,2.09-2.67,2.34-4.27.1-.6.1-1.14-.22-1.68-.26-.45-.78-.88-1.3-1-.56-.13-1.18-.1-1.68.22-.45.29-.91.75-1,1.3-.07.43-.19.85-.35,1.25l.22-.52c-.21.49-.48.95-.8,1.37l.34-.44c-.32.4-.67.76-1.07,1.07l.44-.34c-.42.33-.88.6-1.37.81l.52-.22c-.45.18-.91.31-1.39.38l.58-.08s-.1.01-.14.02c-.6.07-1.1.2-1.54.64-.38.38-.66,1-.64,1.54s.21,1.15.64,1.54c.4.36.98.7,1.54.64h0Z"/>
    <path class="cls-3" d="M91.31,46.52c3.06-.99,5.85-2.6,8.24-4.75.85-.76.84-2.31,0-3.08-.91-.83-2.17-.82-3.08,0-.22.19-.43.39-.66.57-.1.08-.19.16-.29.24-.34.27.37-.28.05-.04-.45.33-.91.66-1.38.96-.93.59-1.91,1.09-2.92,1.52l.52-.22c-.54.22-1.08.42-1.63.6-1.08.35-1.89,1.53-1.52,2.68.35,1.08,1.52,1.89,2.68,1.52h0Z"/>
    <path class="cls-3" d="M90.22,32.97h12.67c1.14,0,2.23-1,2.18-2.18s-.96-2.18-2.18-2.18h-12.67c-1.14,0-2.23,1-2.18,2.18s.96,2.18,2.18,2.18h0Z"/>
    <path class="cls-3" d="M162.12,37.56l5.54,1.56c1.1.31,2.42-.38,2.68-1.52s-.35-2.35-1.52-2.68l-5.54-1.56c-1.1-.31-2.42.38-2.68,1.52-.26,1.16.35,2.35,1.52,2.68h0Z"/>
    <path class="cls-3" d="M160.5,49.98l3.86,1.65c.25.16.52.25.81.26.29.06.58.05.87-.04.51-.14,1.05-.53,1.3-1,.27-.51.4-1.12.22-1.68-.16-.5-.49-1.08-1-1.3l-3.86-1.65c-.25-.16-.52-.25-.81-.26-.29-.06-.58-.05-.87.04-.51.14-1.05.53-1.3,1-.27.51-.4,1.12-.22,1.68.16.5.49,1.08,1,1.3h0Z"/>
    <path class="cls-3" d="M159.89,61.65l2.78,1.6c.49.28,1.13.37,1.68.22.28-.07.53-.2.74-.39.24-.15.42-.36.56-.61.27-.51.4-1.12.22-1.68s-.5-1.01-1-1.3c-.93-.53-1.86-1.07-2.78-1.6-.49-.28-1.13-.37-1.68-.22-.28.07-.53.2-.74.39-.24.15-.42.36-.56.61-.27.51-.4,1.12-.22,1.68s.5,1.01,1,1.3h0Z"/>
    <path class="cls-3" d="M159.41,72c2.22,1.44,4.45,2.87,6.67,4.31.96.62,2.45.23,2.98-.78.57-1.08.24-2.32-.78-2.98-2.22-1.44-4.45-2.87-6.67-4.31-.96-.62-2.45-.23-2.98.78-.57,1.08-.24,2.32.78,2.98h0Z"/>
    <path class="cls-3" d="M162.27,85.99l1.65,1.65c.2.21.43.36.7.45.26.14.54.2.84.19.3.01.58-.05.84-.19.27-.09.5-.24.7-.45l.34-.44c.2-.34.3-.71.3-1.1l-.08-.58c-.1-.37-.29-.69-.56-.96l-1.65-1.65c-.2-.21-.43-.36-.7-.45-.26-.14-.54-.2-.84-.19-.3-.01-.58.05-.84.19-.27.09-.5.24-.7.45l-.34.44c-.2.34-.3.71-.3,1.1l.08.58c.1.37.29.69.56.96h0Z"/>
    <path class="cls-3" d="M160.47,99.78c.06.02.12.05.18.07l-.52-.22c.79.34,1.54.77,2.23,1.3l-.44-.34c.53.41,1.02.87,1.46,1.37.35.4,1.02.64,1.54.64s1.17-.24,1.54-.64.66-.96.64-1.54-.24-1.09-.64-1.54c-.65-.74-1.41-1.37-2.21-1.94s-1.69-.99-2.62-1.36c-.29-.09-.58-.1-.87-.04-.29.01-.56.1-.81.26-.45.26-.88.78-1,1.3-.13.56-.1,1.18.22,1.68l.34.44c.27.27.59.46.96.56h0Z"/>
    <path class="cls-3" d="M161.05,113.88c2.41,1.78,5.3,2.76,8.26,3.03.53.05,1.18-.28,1.54-.64.38-.38.66-1,.64-1.54s-.21-1.15-.64-1.54-.94-.58-1.54-.64c-.2-.02-.4-.04-.6-.07l.58.08c-1.25-.17-2.46-.5-3.62-.99l.52.22c-1.04-.45-2.03-1.01-2.94-1.68-.43-.32-1.19-.35-1.68-.22s-1.05.53-1.3,1c-.27.51-.4,1.12-.22,1.68s.52.95,1,1.3h0Z"/>
    <path class="cls-3" d="M227.94,30.46c1.83,1.01,3.96,1.54,6.05,1.42.58-.03,1.12-.22,1.54-.64.38-.38.66-1,.64-1.54s-.21-1.15-.64-1.54-.96-.67-1.54-.64-1.16.01-1.74-.06l.58.08c-.81-.11-1.6-.32-2.35-.64l.52.22c-.29-.13-.58-.27-.86-.42-.5-.28-1.12-.37-1.68-.22-.51.14-1.05.53-1.3,1-.54,1.02-.28,2.39.78,2.98h0Z"/>
    <path class="cls-3" d="M227.9,37.87c2.2.93,4.4,1.85,6.6,2.78.48.2,1.25.03,1.68-.22.45-.26.88-.78,1-1.3.13-.56.1-1.18-.22-1.68l-.34-.44c-.27-.27-.59-.46-.96-.56l-6.6-2.78c-.48-.2-1.25-.03-1.68.22-.45.26-.88.78-1,1.3-.13.56-.1,1.18.22,1.68l.34.44c.27.27.59.46.96.56h0Z"/>
    <path class="cls-3" d="M227.28,53.57c.87.22,1.72.51,2.55.86l-.52-.22c1.29.55,2.51,1.25,3.63,2.09.43.32,1.19.35,1.68.22s1.05-.53,1.3-1c.27-.51.4-1.12.22-1.68s-.52-.95-1-1.3c-1.99-1.47-4.3-2.55-6.7-3.16-1.1-.28-2.41.36-2.68,1.52-.26,1.13.34,2.38,1.52,2.68h0Z"/>
    <path class="cls-3" d="M227.93,67.94l4.36,2.83c.46.3,1.16.36,1.68.22s1.05-.53,1.3-1c.57-1.08.24-2.32-.78-2.98-1.45-.94-2.91-1.88-4.36-2.83-.46-.3-1.16-.36-1.68-.22s-1.05.53-1.3,1c-.57,1.08-.24,2.32.78,2.98h0Z"/>
    <path class="cls-3" d="M222.39,80.69c2.95,1.26,5.9,2.52,8.85,3.78.56.24,1.06.39,1.68.22.51-.14,1.05-.53,1.3-1,.49-.93.34-2.5-.78-2.98-2.95-1.26-5.9-2.52-8.85-3.78-.56-.24-1.06-.39-1.68-.22-.51.14-1.05.53-1.3,1-.49.93-.34,2.5.78,2.98h0Z"/>
    <path class="cls-3" d="M225.86,94.56l2.75,3.31c.2.21.43.36.7.45.26.14.54.2.84.19.53,0,1.17-.24,1.54-.64s.66-.96.64-1.54l-.08-.58c-.1-.37-.29-.69-.56-.96-.92-1.1-1.83-2.21-2.75-3.31-.2-.21-.43-.36-.7-.45-.26-.14-.54-.2-.84-.19-.53,0-1.17.24-1.54.64s-.66.96-.64,1.54l.08.58c.1.37.29.69.56.96h0Z"/>
    <path class="cls-3" d="M222.01,108.33c.59.55,1.25,1.05,1.96,1.42s1.49.68,2.27.86c.57.13,1.16.08,1.68-.22.45-.26.88-.78,1-1.3.13-.56.1-1.18-.22-1.68-.3-.46-.75-.88-1.3-1-.43-.09-.84-.23-1.24-.39l.52.22c-.55-.24-1.07-.54-1.54-.9l.44.34c-.17-.13-.34-.28-.49-.42-.42-.39-.96-.64-1.54-.64-.53,0-1.17.24-1.54.64s-.66.96-.64,1.54.21,1.14.64,1.54h0Z"/>
    <path class="cls-3" d="M220.77,121.92s.1.07.14.11l-.44-.34c.36.28.68.61.96.97l-.34-.44c.29.38.53.79.71,1.23l-.22-.52c.18.44.31.9.37,1.37l-.08-.58c0,.06.01.12.02.18-.01.3.05.58.19.84.09.27.24.5.45.7.38.38,1,.66,1.54.64s1.15-.21,1.54-.64c.37-.4.7-.98.64-1.54s-.13-1.14-.31-1.68-.4-1.08-.69-1.58-.63-.94-1-1.35-.83-.78-1.29-1.12c-.25-.16-.52-.25-.81-.26-.29-.06-.58-.05-.87.04-.51.14-1.05.53-1.3,1-.27.51-.4,1.12-.22,1.68l.22.52c.19.33.45.59.78.78h0Z"/>
    <path class="cls-3" d="M221.33,133.48c.73.55,1.47,1.1,2.2,1.65.25.16.52.25.81.26.29.06.58.05.87-.04.28-.07.53-.2.74-.39.24-.15.42-.36.56-.61l.22-.52c.1-.39.1-.77,0-1.16l-.22-.52c-.19-.33-.45-.59-.78-.78l-2.2-1.65c-.25-.16-.52-.25-.81-.26-.29-.06-.58-.05-.87.04-.28.07-.53.2-.74.39-.24.15-.42.36-.56.61l-.22.52c-.1.39-.1.77,0,1.16l.22.52c.19.33.45.59.78.78h0Z"/>
    <path class="cls-3" d="M222.93,142.02s.06.02.08.03l-.52-.22c.1.04.19.1.28.16l-.44-.34c.1.08.19.17.27.27l-.34-.44c.08.11.15.23.21.36l-.22-.52c.07.16.11.32.13.49l-.08-.58c.02.15.02.3,0,.45l.08-.58c-.02.14-.05.27-.1.4l.22-.52c-.05.11-.1.21-.18.31l.34-.44c-.05.06-.1.12-.16.18-.21.2-.36.43-.45.7-.14.26-.2.54-.19.84-.01.3.05.58.19.84.09.27.24.5.45.7.41.38.96.66,1.54.64l.58-.08c.37-.1.69-.29.96-.56.46-.42.81-1.04.96-1.64.17-.66.15-1.28.02-1.95-.06-.31-.22-.63-.34-.91s-.34-.53-.54-.77c-.41-.51-1-.81-1.6-1.03-.29-.09-.58-.1-.87-.04-.29.01-.56.1-.81.26-.25.14-.46.32-.61.56-.19.21-.32.46-.39.74-.13.56-.1,1.18.22,1.68l.34.44c.27.27.59.46.96.56h0Z"/>
    <path class="cls-3" d="M221.16,151.37l1.67,2.19c.14.25.32.46.56.61.21.19.46.32.74.39.29.09.58.1.87.04.29-.01.56-.1.81-.26l.44-.34c.27-.27.46-.59.56-.96l.08-.58c0-.39-.1-.76-.3-1.1l-1.67-2.19c-.14-.25-.32-.46-.56-.61-.21-.19-.46-.32-.74-.39-.29-.09-.58-.1-.87-.04-.29.01-.56.1-.81.26l-.44.34c-.27.27-.46.59-.56.96l-.08.58c0,.39.1.76.3,1.1h0Z"/>
    <path class="cls-3" d="M220.34,159.58c.55.55,1.1,1.1,1.65,1.65.2.21.43.36.7.45.26.14.54.2.84.19.3.01.58-.05.84-.19.27-.09.5-.24.7-.45l.34-.44c.2-.34.3-.71.3-1.1l-.08-.58c-.1-.37-.29-.69-.56-.96l-1.65-1.65c-.2-.21-.43-.36-.7-.45-.26-.14-.54-.2-.84-.19-.3-.01-.58.05-.84.19-.27.09-.5.24-.7.45l-.34.44c-.2.34-.3.71-.3,1.1l.08.58c.1.37.29.69.56.96h0Z"/>
    <path class="cls-3" d="M219.25,164.67c.57,1.46,1.13,2.93,1.7,4.39.21.54.48,1,1,1.3.47.27,1.15.39,1.68.22s1.04-.5,1.3-1,.43-1.14.22-1.68l-1.7-4.39c-.21-.54-.48-1-1-1.3-.47-.27-1.15-.39-1.68-.22s-1.04.5-1.3,1-.43,1.14-.22,1.68h0Z"/>
    <path class="cls-3" d="M220.22,180.02c3.3-.2,6.61-.4,9.91-.6,1.13-.07,2.23-.95,2.18-2.18-.05-1.12-.96-2.25-2.18-2.18-3.3.2-6.61.4-9.91.6-1.13.07-2.23.95-2.18,2.18.05,1.12.96,2.25,2.18,2.18h0Z"/>
    <path class="cls-3" d="M29.71,22.15c-2.7,19.17-4.04,38.49-4.44,57.84-.4,19.26.08,38.52.87,57.76.45,10.81.99,21.62,1.54,32.43.09,1.76,1.44,3.27,3.27,3.27,1.7,0,3.36-1.5,3.27-3.27-.97-19.08-1.93-38.17-2.35-57.27-.42-19.07-.28-38.16.95-57.19.69-10.64,1.71-21.27,3.2-31.83.25-1.74-.43-3.51-2.28-4.02-1.53-.42-3.77.52-4.02,2.28h0Z"/>
    <path class="cls-3" d="M87.98,23.07c-1.42,19.97-2.28,39.97-2.55,59.99-.27,20.02.03,40.04.91,60.04.49,11.24,1.17,22.47,2.03,33.69.13,1.76,1.4,3.27,3.27,3.27,1.66,0,3.4-1.5,3.27-3.27-1.52-19.96-2.48-39.96-2.85-59.98-.37-20.01-.17-40.04.61-60.04.44-11.24,1.06-22.47,1.86-33.7.13-1.76-1.59-3.27-3.27-3.27-1.87,0-3.14,1.5-3.27,3.27h0Z"/>
    <path class="cls-3" d="M155.16,32.69c1.65,9.63,1.5,19.45,1.09,29.18-.42,9.97-.91,19.94-1.26,29.91-.69,20.06-1.05,40.13-1.07,60.2-.01,11.28.08,22.56.27,33.84.05,2.8,4.4,2.81,4.35,0-.35-20.23-.37-40.47-.04-60.71.32-20.12,1.04-40.23,1.97-60.33.51-11.11.77-22.25-1.12-33.25-.2-1.16-1.62-1.81-2.68-1.52-1.23.34-1.72,1.52-1.52,2.68h0Z"/>
    <path class="cls-3" d="M222.44,22.83c-2.42,9.96-1.28,20.28-.89,30.4.4,10.43.5,20.86.37,31.29-.27,21.13-1.49,42.24-3.04,63.31-.87,11.82-1.85,23.64-2.84,35.45-.23,2.79,4.12,2.78,4.35,0,1.74-20.9,3.47-41.81,4.61-62.76,1.14-20.92,1.69-41.89,1.05-62.83-.17-5.67-.53-11.33-.71-16.99-.17-5.61-.05-11.24,1.28-16.72.66-2.72-3.54-3.88-4.2-1.16h0Z"/>
    <path class="cls-3" d="M18.68,65.1c36.53,1.97,73.07,3.93,109.65,4.77,36.17.83,72.32.4,108.44-1.89,20.11-1.27,40.43-2.64,60.49.06,1.16.16,2.34-.28,2.68-1.52.28-1.01-.35-2.52-1.52-2.68-17.93-2.41-35.99-1.78-53.99-.69s-36.32,2.13-54.52,2.52c-36.47.78-72.95-.2-109.39-1.8-20.62-.91-41.22-2.01-61.83-3.12-2.8-.15-2.79,4.2,0,4.35h0Z"/>
    <path class="cls-3" d="M16.39,35.11c38.79,2.26,77.46-2.76,116.2-3.57,19.4-.41,38.81.15,58.15,1.67,9.39.74,18.76,1.71,28.11,2.9s19.2,2.69,28.89,2.53c10.8-.19,21.58-2.12,32.26-3.56s21.81-2.95,32.72-4.42c1.17-.16,1.79-1.65,1.52-2.68-.33-1.26-1.52-1.68-2.68-1.52-9.74,1.31-19.48,2.63-29.22,3.94s-19.21,2.89-28.88,3.61-18.88-.22-28.28-1.43-19.09-2.39-28.68-3.24c-19.1-1.7-38.29-2.45-57.47-2.26-19.31.19-38.58,1.52-57.86,2.66-21.57,1.28-43.2,2.27-64.79,1.01-2.8-.16-2.79,4.19,0,4.35h0Z"/>
    <path class="cls-3" d="M19.21,111.92c17.99,3.43,36.33,3.06,54.51,1.8s36.49-3.32,54.81-2.98c18.52.35,36.97,1.81,55.51,1.49s37.2-1.64,55.78-2.69c18.66-1.06,37.37-1.85,56.07-1.12,2.32.09,4.63.21,6.95.35,2.8.17,2.79-4.19,0-4.35-18.59-1.11-37.22-.58-55.8.38-18.5.96-36.98,2.34-55.49,2.9-9.26.28-18.53.36-27.79.09-9.28-.28-18.54-.87-27.82-1.19s-18.09-.28-27.14.2-18.12,1.28-27.18,1.99c-18.1,1.42-36.46,2.58-54.52.06-2.25-.31-4.5-.69-6.73-1.12-2.74-.52-3.91,3.67-1.16,4.2h0Z"/>
    <path class="cls-3" d="M15.94,122.81c16.47,5.95,34.19,7.32,51.58,6.82s36.19-3.03,54.32-4.15,36.48.13,54.73,1.29c9.04.57,18.08,1.06,27.14,1.01s18.4-.7,27.57-1.48c18.32-1.57,36.7-3.72,55.12-2.66,2.34.14,4.68.33,7.01.57,1.17.12,2.18-1.09,2.18-2.18,0-1.28-1-2.06-2.18-2.18-18.27-1.9-36.6-.21-54.82,1.44-9.19.83-18.39,1.65-27.61,1.98s-18.14.07-27.2-.43c-18.17-.99-36.32-2.76-54.54-2.09s-36.16,3.19-54.28,4.2c-17.33.97-35.02.53-51.79-4.36-2.05-.6-4.07-1.26-6.08-1.99-2.64-.95-3.78,3.25-1.16,4.2h0Z"/>
    <path class="cls-3" d="M18.97,149.27c16.31,5.64,33.69,7.08,50.85,7.01s34.49-1.56,51.75-1.62c18.03-.06,35.9,2.09,53.81,3.9,18.46,1.87,36.97,3.3,55.5,4.36s36.91,1.74,55.38,2.12c2.34.05,4.67.09,7.01.13,4.2.07,4.21-6.46,0-6.53-18.47-.31-36.93-.91-55.37-1.87s-36.88-2.28-55.28-4.03-35.93-4.13-54.01-4.55c-17.27-.4-34.5,1.05-51.76,1.45s-33.73-.18-49.97-4.74c-2.08-.58-4.14-1.24-6.19-1.94-1.67-.58-3.57.66-4.02,2.28-.49,1.8.61,3.44,2.28,4.02h0Z"/>
    <path class="cls-3" d="M18.57,93.77c35.93,6.12,72.22,1.58,108.28-.6,17.66-1.07,35.3-1.08,52.99-.8,18.29.29,36.57.58,54.86.87,20.66.33,41.33.65,61.99.98,4.2.07,4.21-6.46,0-6.53-36.63-.58-73.25-1.16-109.88-1.74-17.66-.28-35.32-.58-52.97.3-17.83.89-35.62,2.61-53.45,3.53-20.03,1.03-40.26,1.07-60.09-2.3-1.74-.3-3.52.46-4.02,2.28-.43,1.57.53,3.72,2.28,4.02h0Z"/>
    <path class="cls-3" d="M18.45,78.75c17.22,2.14,34.55,3.34,51.9,3.56s34.29-.67,51.4-2.16c8.62-.75,17.23-1.31,25.89-1.28s17.25.49,25.85,1.11c16.96,1.21,33.87,2.96,50.88,3.32,19.51.41,39.04-.65,58.4-3.12,1.75-.22,3.27-1.34,3.27-3.27,0-1.59-1.5-3.49-3.27-3.27-17.28,2.21-34.7,3.29-52.13,3.21s-34-1.6-50.98-2.93c-17.24-1.35-34.47-2.16-51.74-.81-8.44.66-16.87,1.49-25.33,1.97s-17.34.74-26.01.75c-19.43.02-38.86-1.19-58.14-3.6-1.75-.22-3.27,1.66-3.27,3.27,0,1.95,1.51,3.05,3.27,3.27h0Z"/>
    <path class="cls-3" d="M18.57,52.5c36.46,1.36,72.92,2.71,109.39,4.07,17.91.67,35.85,1.6,53.77.71,9.06-.45,18.09-1.26,27.14-1.79s18.04-.83,27.06-.99c20.46-.37,40.92,0,61.38.39,2.28.04,4.46-2.03,4.35-4.35s-1.91-4.31-4.35-4.35c-18.25-.34-36.49-.68-54.74-.48-9.03.1-18.05.32-27.07.74s-18.08,1.15-27.11,1.74c-17.93,1.17-35.82.6-53.76-.07-18.14-.67-36.28-1.35-54.42-2.02-20.54-.76-41.09-1.53-61.63-2.29-2.28-.08-4.46,2.06-4.35,4.35.11,2.43,1.91,4.26,4.35,4.35h0Z"/>
    <path class="cls-3" d="M281.28,26.91c3.52-.66,7.03-1.68,10.2-3.37,2.74-1.46,5.48-3.85,6.13-7.03.58-2.79-1.23-5.45-4.2-5.51-36.54-.72-73.07-1.44-109.61-2.17-36.35-.72-72.7-1.44-109.05-2.16-20.51-.41-41.01-.81-61.52-1.22-2.28-.05-4.46,2.04-4.35,4.35s1.91,4.31,4.35,4.35c36.54.72,73.07,1.44,109.61,2.17s72.7,1.44,109.05,2.16c20.51.41,41.01.81,61.52,1.22-1.4-1.84-2.8-3.67-4.2-5.51-.03.16-.05.39-.13.54.62-1.09.14-.3,0-.14-.34.43.59-.52.13-.15-.2.16-.39.39-.57.58-.3.32-.24.19.06-.02-.26.18-.51.35-.78.52-.52.32-1.05.59-1.59.86-.21.11-.56.27-.14.08-.27.12-.55.22-.83.32-.65.24-1.31.46-1.97.66-1.46.44-2.94.78-4.44,1.06-2.24.42-3.72,3.25-3.04,5.36.78,2.4,2.95,3.49,5.36,3.04h0Z"/>
    <path class="cls-3" d="M17.12,19.44c31.73,1.12,63.46,2.2,95.19,3.27s63.05,2.11,94.58,3.19c17.79.61,35.58,1.22,53.37,1.86,2.28.08,4.46-2.06,4.35-4.35-.11-2.43-1.91-4.27-4.35-4.35-31.73-1.12-63.46-2.2-95.19-3.27s-63.05-2.11-94.58-3.19c-17.79-.61-35.58-1.22-53.37-1.86-2.28-.08-4.46,2.06-4.35,4.35.11,2.43,1.91,4.27,4.35,4.35h0Z"/>
    <path class="cls-3" d="M274.91,7.68c-.95,1.85-1.9,3.69-2.85,5.54-.27.52-.38,1.1-.22,1.68.14.51.53,1.05,1,1.3.51.27,1.12.4,1.68.22.52-.17,1.04-.5,1.3-1,.95-1.85,1.9-3.69,2.85-5.54.27-.52.38-1.1.22-1.68-.14-.51-.53-1.05-1-1.3-.51-.27-1.12-.4-1.68-.22-.52.17-1.04.5-1.3,1h0Z"/>
    <path class="cls-3" d="M252.16,6.15c-1.01,1.29-2.01,2.57-3.02,3.86-.21.2-.36.43-.45.7-.14.26-.2.54-.19.84,0,.53.24,1.17.64,1.54s.96.66,1.54.64c.54-.02,1.19-.19,1.54-.64,1.01-1.29,2.01-2.57,3.02-3.86.21-.2.36-.43.45-.7.14-.26.2-.54.19-.84,0-.53-.24-1.17-.64-1.54s-.96-.66-1.54-.64c-.54.02-1.19.19-1.54.64h0Z"/>
    <path class="cls-3" d="M230.84,5.54c-.98.93-1.95,1.86-2.93,2.78-.4.38-.64,1-.64,1.54-.01.3.05.58.19.84.09.27.24.5.45.7.41.38.96.66,1.54.64s1.11-.23,1.54-.64l2.93-2.78c.4-.38.64-1,.64-1.54.01-.3-.05-.58-.19-.84-.09-.27-.24-.5-.45-.7-.41-.38-.96-.66-1.54-.64s-1.11.23-1.54.64h0Z"/>
    <path class="cls-3" d="M211.94,5.05c-2.62,2.22-5.25,4.45-7.87,6.67-.87.74-.82,2.33,0,3.08.93.85,2.15.79,3.08,0,2.62-2.22,5.25-4.45,7.87-6.67.87-.74.82-2.33,0-3.08-.93-.85-2.15-.79-3.08,0h0Z"/>
    <path class="cls-3" d="M186.19,8.01l-3.02,1.65c-.47.26-.86.79-1,1.3-.09.29-.1.58-.04.87.01.29.1.56.26.81.3.46.75.87,1.3,1s1.15.07,1.68-.22l3.02-1.65c.47-.26.86-.79,1-1.3.09-.29.1-.58.04-.87-.01-.29-.1-.56-.26-.81-.3-.46-.75-.87-1.3-1s-1.15-.07-1.68.22h0Z"/>
    <path class="cls-3" d="M161.24,6.03c-.04.06-.08.11-.12.17l.34-.44c-.56.73-1.23,1.36-1.96,1.93l.44-.34c-.91.7-1.89,1.28-2.92,1.77-.47.23-.87.82-1,1.3-.14.52-.08,1.22.22,1.68s.75.87,1.3,1c.6.14,1.13.05,1.68-.22,1.21-.58,2.31-1.29,3.36-2.11.94-.73,1.72-1.58,2.43-2.54.31-.43.35-1.19.22-1.68s-.53-1.05-1-1.3c-.51-.27-1.12-.4-1.68-.22l-.52.22c-.33.19-.59.45-.78.78h0Z"/>
    <path class="cls-3" d="M135.87,6.36c-2.81,2.07-5.4,4.9-6,8.46-.1.59-.1,1.14.22,1.68.26.45.78.88,1.3,1,1.05.24,2.48-.32,2.68-1.52.11-.65.29-1.28.55-1.89l-.22.52c.2-.48.44-.94.72-1.38.13-.21.27-.42.42-.63.1-.14.46-.52,0,0,.09-.1.17-.21.25-.31.37-.43.76-.84,1.18-1.23.21-.2.43-.39.65-.57.13-.11.28-.2.39-.32-.27.21-.32.24-.14.11.07-.05.14-.1.21-.15.47-.35.84-.72,1-1.3.14-.52.08-1.22-.22-1.68s-.75-.87-1.3-1-1.22-.12-1.68.22h0Z"/>
    <path class="cls-3" d="M282.91,1.17c-18.12,1.72-36.34,1.58-54.51,1.16s-36.48-.91-54.73-1.26C137.04.38,100.41.03,63.78,0,43.22-.01,22.66.08,2.1.28c-2.8.03-2.81,4.38,0,4.35,36.82-.35,73.64-.37,110.46-.05,36.59.32,73.17,1.02,109.75,1.95,20.2.52,40.45.89,60.6-1.01,1.17-.11,2.18-.92,2.18-2.18,0-1.09-1-2.29-2.18-2.18h0Z"/>
  </g>
  <g>
    <g>
      <path d="M178.82,68.83c-1.76,3.21-4.61,11.04-1.63,13.17,2.29,1.63,5.43.32,7.9-1.01,2.81-1.5,5.7-3.02,8.86-3.39s6.69.67,8.42,3.34c1.92,2.96,1.1,4.94-.48,8.1-1.58,3.16-3.85,6-4.87,9.38-1.48,4.9-.13,10.15,1.21,15.08,3.18,11.66,6.35,23.39,7.63,35.41,1.29,12.02.62,24.44-3.68,35.74,7.2,4.51,16.22,4.63,24.72,4.6,13-.04,26-.07,38.99-.11,1.21,0,2.54-.05,3.47-.83.85-.72,1.14-1.88,1.32-2.98,1.39-8.52-1.53-17.05-3.25-25.51-1.74-8.52-2.28-17.28-1.59-25.95.83-10.54.37-20.56-1.6-30.94-1.24-6.52-4.25-12.61-8.08-18.02-7.31-10.32-11.91-13.84-23.74-18.31-6.71-2.53-16.66-9.11-22.93-12.61-6.26-3.5-11.67-7.85-11.27-15.01.08-1.43.39-2.85.28-4.27-.23-3-2.51-5.73-5.42-6.5-.77-.2-1.6-.27-2.33.05-1.91.84-1.85,3.58-1.18,5.55s1.61,4.25.49,6.01c-1.32,2.08-4.63,1.71-6.52.13s-2.92-3.95-4.48-5.85-4.23-3.39-6.44-2.32c-2.51,1.22-2.68,4.77-1.85,7.43,1.19,3.8,3.73,7.15,7.05,9.35,1.03.68,2.23,1.39,2.48,2.59.2.94-.26,1.88-.67,2.75-2.53,5.47-1.82,8.6-.49,14.48"/>
      <path d="M177.53,68.07c-1.63,3.02-2.93,6.54-3.12,10-.09,1.55.15,3.25,1.19,4.47,1.34,1.58,3.55,1.9,5.49,1.57,4.83-.81,8.52-4.82,13.57-5.07,4.16-.21,8.61,2.77,6.83,7.34-1.82,4.65-5.48,8.4-6.34,13.44-.91,5.33.69,10.62,2.07,15.72,2.94,10.82,5.84,21.73,7.08,32.9,1.34,12.04.73,24.4-3.57,35.82-.23.62.16,1.37.69,1.69,5.14,3.15,11.09,4.27,17.03,4.63,6.63.41,13.31.16,19.94.14,7.17-.02,14.33-.04,21.5-.06,1.75,0,3.5,0,5.25-.01,1.45,0,3.05.05,4.37-.65,2.62-1.39,2.81-4.83,2.97-7.45.41-6.74-1.42-13.38-2.91-19.89-1.55-6.77-2.46-13.62-2.53-20.58s.8-13.75.64-20.66c-.16-6.72-.79-13.59-2.28-20.16-1.37-6.04-4.2-11.7-7.72-16.75-2.71-3.88-5.64-7.73-9.23-10.84-3.27-2.83-7.02-4.92-10.98-6.63-2.31-.99-4.69-1.8-6.97-2.86-2.42-1.12-4.77-2.41-7.09-3.73-4.54-2.58-8.96-5.36-13.5-7.93-4.07-2.31-8.62-5.34-9.89-10.15-.77-2.92.38-5.83-.17-8.74-.47-2.42-2.05-4.58-4.13-5.88-2.17-1.36-5.45-1.91-7.17.43-1.35,1.85-1,4.39-.31,6.42.4,1.18,1.12,2.71.74,3.98-.33,1.11-1.49,1.32-2.51,1.15-2.59-.44-3.85-3.16-5.2-5.11-1.56-2.26-3.7-4.4-6.59-4.65-2.47-.21-4.58,1.31-5.41,3.59-1.77,4.83,1.47,10.57,4.8,13.9.91.91,1.92,1.7,2.98,2.42.46.31.96.58,1.35.98.67.68.36,1.33.01,2.12-1.11,2.54-1.99,5.06-1.99,7.87,0,2.69.67,5.36,1.26,7.96.43,1.88,3.32,1.09,2.89-.8-.58-2.57-1.26-5.18-1.13-7.84.05-1.12.28-2.21.62-3.28.44-1.4,1.26-2.69,1.62-4.11.78-3.03-1.68-4.4-3.75-5.93-2.07-1.53-3.73-3.58-4.87-5.87-.94-1.88-1.78-4.4-.95-6.48,1.03-2.58,3.92-1.36,5.38.13,1.81,1.85,2.76,4.38,4.69,6.15,1.69,1.55,4.14,2.42,6.41,1.82,2.4-.63,3.66-2.9,3.44-5.29-.12-1.35-.62-2.59-1.03-3.87-.3-.94-.61-2.16-.22-3.12.9-2.2,4.35.56,5.12,1.63,1.77,2.46.75,5.19.79,7.96.13,10.27,11.11,14.77,18.6,19.26,4.48,2.68,8.96,5.42,13.69,7.62,4.17,1.93,8.54,3.29,12.53,5.61,3.46,2.01,6.41,4.63,9.01,7.66,3.5,4.07,6.64,8.6,8.97,13.44,2.73,5.67,3.83,11.8,4.53,18.01.72,6.46.87,12.98.5,19.47s-.67,12.99-.01,19.54c.65,6.44,2.17,12.65,3.55,18.96.71,3.23,1.31,6.5,1.44,9.82.06,1.55.02,3.1-.15,4.65-.12,1.09-.2,2.89-1.33,3.45s-2.91.26-4.14.26c-1.83,0-3.67.01-5.5.02-3.33,0-6.67.02-10,.03-6.83.02-13.66.04-20.5.06-5.78.02-11.68.1-17.33-1.28-2.7-.66-5.26-1.66-7.63-3.12l.69,1.69c7.8-20.73,3.63-43.26-1.82-64-.7-2.65-1.42-5.3-2.14-7.94-.74-2.72-1.51-5.49-1.73-8.31-.21-2.6.05-5.18,1.12-7.58,1-2.26,2.45-4.3,3.63-6.47,1.05-1.92,2.22-4.07,2.29-6.31.07-2.07-.98-4.19-2.43-5.63-3.25-3.21-8.28-3.27-12.35-1.85-2.56.89-4.82,2.34-7.27,3.44-1.4.63-4.52,1.75-5.32-.29-.63-1.59-.02-3.73.42-5.28.51-1.81,1.2-3.58,2.09-5.24s-1.67-3.22-2.59-1.51h0Z"/>
    </g>
    <path class="cls-3" d="M223.99,104.48c2.32,5.97,8.22,23.93,10.31,29.99,1.18,3.4,2.3,6.91,2.23,10.51-.05,2.57-.7,5.09-1.34,7.58-1.75,6.76-3.59,13.71-7.74,19.34-1.19,1.61-2.56,3.1-3.56,4.83-.74,1.28-1.31,2.72-2.42,3.7-2.5,2.19-6.35,1.11-9.45-.08-3.02-1.16-6.34-2.6-7.64-5.56-1.24-2.82-.24-6.07.8-8.97,3.17-8.8,6.76-17.96,5.4-27.22-1.58-10.76-9.58-19.55-12.26-30.09-.92-3.63-.87-8.17,2.2-10.31.81-.57,1.76-.9,2.71-1.18,3.74-1.1,7.83-1.39,11.51-.1s8.49,3.73,9.27,7.55"/>
    <path class="cls-1" d="M178.95,66.27c1.93,0,1.93-3,0-3s-1.93,3,0,3h0Z"/>
    <path class="cls-2" d="M203.31,175.86c1.27,1.26,2.55,2.28,4.18,3.03s3.48,1.38,5.29,1.87c3.29.88,7,1.68,10.42,1.27.8-.1,1.5-.62,1.5-1.5,0-.74-.69-1.6-1.5-1.5-3.1.37-6.39-.32-9.38-1.1-1.57-.41-3.14-.88-4.62-1.54-1.61-.71-2.56-1.44-3.77-2.65-1.37-1.36-3.49.76-2.12,2.12h0Z"/>
  </g>
</svg>